<mxfile host="Electron" modified="2024-05-09T13:15:41.685Z" agent="Mozilla/5.0 (Windows NT 10.0; Win64; x64) AppleWebKit/537.36 (KHTML, like Gecko) draw.io/24.2.5 Chrome/120.0.6099.109 Electron/28.1.0 Safari/537.36" etag="uyyfFuqcKfDWcGfc35TM" version="24.2.5" type="device">
  <diagram name="第 1 页" id="avbMNw8-js4K3P1x5fn3">
    <mxGraphModel dx="2074" dy="1205" grid="1" gridSize="10" guides="1" tooltips="1" connect="1" arrows="1" fold="1" page="1" pageScale="1" pageWidth="827" pageHeight="1169" math="0" shadow="0">
      <root>
        <mxCell id="0" />
        <mxCell id="1" parent="0" />
        <mxCell id="kZOT7CUKK4h2_xGk0QCZ-37" value="" style="rounded=0;whiteSpace=wrap;html=1;fillColor=#ffe6cc;strokeColor=#d79b00;" vertex="1" parent="1">
          <mxGeometry x="160" y="865" width="570" height="640" as="geometry" />
        </mxCell>
        <mxCell id="kZOT7CUKK4h2_xGk0QCZ-1" value="" style="shape=table;startSize=0;container=1;collapsible=0;childLayout=tableLayout;fontSize=16;fillColor=#f8cecc;strokeColor=#b85450;" vertex="1" parent="1">
          <mxGeometry x="170" y="900" width="510" height="40" as="geometry" />
        </mxCell>
        <mxCell id="kZOT7CUKK4h2_xGk0QCZ-2" value="" style="shape=tableRow;horizontal=0;startSize=0;swimlaneHead=0;swimlaneBody=0;strokeColor=inherit;top=0;left=0;bottom=0;right=0;collapsible=0;dropTarget=0;fillColor=none;points=[[0,0.5],[1,0.5]];portConstraint=eastwest;fontSize=16;" vertex="1" parent="kZOT7CUKK4h2_xGk0QCZ-1">
          <mxGeometry width="510" height="40" as="geometry" />
        </mxCell>
        <mxCell id="kZOT7CUKK4h2_xGk0QCZ-3" value="Cluster" style="shape=partialRectangle;html=1;whiteSpace=wrap;connectable=0;strokeColor=inherit;overflow=hidden;fillColor=none;top=0;left=0;bottom=0;right=0;pointerEvents=1;fontSize=16;" vertex="1" parent="kZOT7CUKK4h2_xGk0QCZ-2">
          <mxGeometry width="86" height="40" as="geometry">
            <mxRectangle width="86" height="40" as="alternateBounds" />
          </mxGeometry>
        </mxCell>
        <mxCell id="kZOT7CUKK4h2_xGk0QCZ-4" value="Cluster" style="shape=partialRectangle;html=1;whiteSpace=wrap;connectable=0;strokeColor=inherit;overflow=hidden;fillColor=none;top=0;left=0;bottom=0;right=0;pointerEvents=1;fontSize=16;" vertex="1" parent="kZOT7CUKK4h2_xGk0QCZ-2">
          <mxGeometry x="86" width="85" height="40" as="geometry">
            <mxRectangle width="85" height="40" as="alternateBounds" />
          </mxGeometry>
        </mxCell>
        <mxCell id="kZOT7CUKK4h2_xGk0QCZ-5" value="Cluster" style="shape=partialRectangle;html=1;whiteSpace=wrap;connectable=0;strokeColor=inherit;overflow=hidden;fillColor=none;top=0;left=0;bottom=0;right=0;pointerEvents=1;fontSize=16;" vertex="1" parent="kZOT7CUKK4h2_xGk0QCZ-2">
          <mxGeometry x="171" width="84" height="40" as="geometry">
            <mxRectangle width="84" height="40" as="alternateBounds" />
          </mxGeometry>
        </mxCell>
        <mxCell id="kZOT7CUKK4h2_xGk0QCZ-6" value="Cluster" style="shape=partialRectangle;html=1;whiteSpace=wrap;connectable=0;strokeColor=inherit;overflow=hidden;fillColor=none;top=0;left=0;bottom=0;right=0;pointerEvents=1;fontSize=16;" vertex="1" parent="kZOT7CUKK4h2_xGk0QCZ-2">
          <mxGeometry x="255" width="86" height="40" as="geometry">
            <mxRectangle width="86" height="40" as="alternateBounds" />
          </mxGeometry>
        </mxCell>
        <mxCell id="kZOT7CUKK4h2_xGk0QCZ-7" value="Cluster" style="shape=partialRectangle;html=1;whiteSpace=wrap;connectable=0;strokeColor=inherit;overflow=hidden;fillColor=none;top=0;left=0;bottom=0;right=0;pointerEvents=1;fontSize=16;" vertex="1" parent="kZOT7CUKK4h2_xGk0QCZ-2">
          <mxGeometry x="341" width="84" height="40" as="geometry">
            <mxRectangle width="84" height="40" as="alternateBounds" />
          </mxGeometry>
        </mxCell>
        <mxCell id="kZOT7CUKK4h2_xGk0QCZ-8" value="Cluster" style="shape=partialRectangle;html=1;whiteSpace=wrap;connectable=0;strokeColor=inherit;overflow=hidden;fillColor=none;top=0;left=0;bottom=0;right=0;pointerEvents=1;fontSize=16;" vertex="1" parent="kZOT7CUKK4h2_xGk0QCZ-2">
          <mxGeometry x="425" width="85" height="40" as="geometry">
            <mxRectangle width="85" height="40" as="alternateBounds" />
          </mxGeometry>
        </mxCell>
        <mxCell id="kZOT7CUKK4h2_xGk0QCZ-9" value="" style="ellipse;whiteSpace=wrap;html=1;fillColor=#d5e8d4;strokeColor=#82b366;" vertex="1" parent="1">
          <mxGeometry x="430" y="1120" width="180" height="210" as="geometry" />
        </mxCell>
        <mxCell id="kZOT7CUKK4h2_xGk0QCZ-10" value="" style="ellipse;whiteSpace=wrap;html=1;fillColor=#dae8fc;strokeColor=#6c8ebf;" vertex="1" parent="1">
          <mxGeometry x="240" y="1080" width="180" height="210" as="geometry" />
        </mxCell>
        <mxCell id="kZOT7CUKK4h2_xGk0QCZ-11" value="Cluster" style="ellipse;whiteSpace=wrap;html=1;aspect=fixed;fontSize=16;fillColor=#f8cecc;strokeColor=#b85450;" vertex="1" parent="1">
          <mxGeometry x="250" y="1140" width="60" height="60" as="geometry" />
        </mxCell>
        <mxCell id="kZOT7CUKK4h2_xGk0QCZ-12" value="Cluster" style="ellipse;whiteSpace=wrap;html=1;aspect=fixed;fontSize=16;fillColor=#f8cecc;strokeColor=#b85450;" vertex="1" parent="1">
          <mxGeometry x="350" y="1140" width="60" height="60" as="geometry" />
        </mxCell>
        <mxCell id="kZOT7CUKK4h2_xGk0QCZ-13" value="Cluster" style="ellipse;whiteSpace=wrap;html=1;aspect=fixed;fontSize=16;fillColor=#f8cecc;strokeColor=#b85450;" vertex="1" parent="1">
          <mxGeometry x="480" y="1140" width="60" height="60" as="geometry" />
        </mxCell>
        <mxCell id="kZOT7CUKK4h2_xGk0QCZ-14" value="Cluster" style="ellipse;whiteSpace=wrap;html=1;aspect=fixed;fontSize=16;fillColor=#f8cecc;strokeColor=#b85450;" vertex="1" parent="1">
          <mxGeometry x="540" y="1220" width="60" height="60" as="geometry" />
        </mxCell>
        <mxCell id="kZOT7CUKK4h2_xGk0QCZ-15" value="Cluster" style="ellipse;whiteSpace=wrap;html=1;aspect=fixed;fontSize=16;fillColor=#f8cecc;strokeColor=#b85450;" vertex="1" parent="1">
          <mxGeometry x="310" y="1220" width="60" height="60" as="geometry" />
        </mxCell>
        <mxCell id="kZOT7CUKK4h2_xGk0QCZ-16" value="Cluster" style="ellipse;whiteSpace=wrap;html=1;aspect=fixed;fontSize=16;fillColor=#f8cecc;strokeColor=#b85450;" vertex="1" parent="1">
          <mxGeometry x="440" y="1220" width="60" height="60" as="geometry" />
        </mxCell>
        <mxCell id="kZOT7CUKK4h2_xGk0QCZ-17" value="" style="endArrow=none;html=1;rounded=0;exitX=1;exitY=0.5;exitDx=0;exitDy=0;entryX=0;entryY=0.5;entryDx=0;entryDy=0;" edge="1" parent="1" source="kZOT7CUKK4h2_xGk0QCZ-11" target="kZOT7CUKK4h2_xGk0QCZ-12">
          <mxGeometry width="50" height="50" relative="1" as="geometry">
            <mxPoint x="420" y="1160" as="sourcePoint" />
            <mxPoint x="470" y="1110" as="targetPoint" />
          </mxGeometry>
        </mxCell>
        <mxCell id="kZOT7CUKK4h2_xGk0QCZ-18" value="" style="endArrow=none;html=1;rounded=0;exitX=0;exitY=0.5;exitDx=0;exitDy=0;entryX=1;entryY=0.5;entryDx=0;entryDy=0;" edge="1" parent="1" source="kZOT7CUKK4h2_xGk0QCZ-13" target="kZOT7CUKK4h2_xGk0QCZ-12">
          <mxGeometry width="50" height="50" relative="1" as="geometry">
            <mxPoint x="320" y="1180" as="sourcePoint" />
            <mxPoint x="360" y="1180" as="targetPoint" />
          </mxGeometry>
        </mxCell>
        <mxCell id="kZOT7CUKK4h2_xGk0QCZ-19" value="" style="endArrow=none;html=1;rounded=0;exitX=0.5;exitY=1;exitDx=0;exitDy=0;entryX=0.5;entryY=0;entryDx=0;entryDy=0;" edge="1" parent="1" source="kZOT7CUKK4h2_xGk0QCZ-12" target="kZOT7CUKK4h2_xGk0QCZ-15">
          <mxGeometry width="50" height="50" relative="1" as="geometry">
            <mxPoint x="460" y="1180" as="sourcePoint" />
            <mxPoint x="420" y="1180" as="targetPoint" />
          </mxGeometry>
        </mxCell>
        <mxCell id="kZOT7CUKK4h2_xGk0QCZ-20" value="" style="endArrow=none;html=1;rounded=0;exitX=1;exitY=0.5;exitDx=0;exitDy=0;entryX=0;entryY=0.5;entryDx=0;entryDy=0;" edge="1" parent="1" source="kZOT7CUKK4h2_xGk0QCZ-15" target="kZOT7CUKK4h2_xGk0QCZ-16">
          <mxGeometry width="50" height="50" relative="1" as="geometry">
            <mxPoint x="320" y="1180" as="sourcePoint" />
            <mxPoint x="360" y="1180" as="targetPoint" />
          </mxGeometry>
        </mxCell>
        <mxCell id="kZOT7CUKK4h2_xGk0QCZ-21" value="" style="endArrow=none;html=1;rounded=0;exitX=1;exitY=0.5;exitDx=0;exitDy=0;entryX=0;entryY=0.5;entryDx=0;entryDy=0;" edge="1" parent="1" source="kZOT7CUKK4h2_xGk0QCZ-16" target="kZOT7CUKK4h2_xGk0QCZ-14">
          <mxGeometry width="50" height="50" relative="1" as="geometry">
            <mxPoint x="380" y="1260" as="sourcePoint" />
            <mxPoint x="420" y="1260" as="targetPoint" />
          </mxGeometry>
        </mxCell>
        <mxCell id="kZOT7CUKK4h2_xGk0QCZ-22" value="" style="endArrow=none;html=1;rounded=0;exitX=1;exitY=0.5;exitDx=0;exitDy=0;entryX=0.5;entryY=0;entryDx=0;entryDy=0;" edge="1" parent="1" source="kZOT7CUKK4h2_xGk0QCZ-13" target="kZOT7CUKK4h2_xGk0QCZ-14">
          <mxGeometry width="50" height="50" relative="1" as="geometry">
            <mxPoint x="480" y="1260" as="sourcePoint" />
            <mxPoint x="520" y="1260" as="targetPoint" />
          </mxGeometry>
        </mxCell>
        <mxCell id="kZOT7CUKK4h2_xGk0QCZ-23" value="" style="endArrow=none;html=1;rounded=0;exitX=0.5;exitY=1;exitDx=0;exitDy=0;entryX=0.5;entryY=0;entryDx=0;entryDy=0;" edge="1" parent="1" source="kZOT7CUKK4h2_xGk0QCZ-13" target="kZOT7CUKK4h2_xGk0QCZ-16">
          <mxGeometry width="50" height="50" relative="1" as="geometry">
            <mxPoint x="502" y="1207" as="sourcePoint" />
            <mxPoint x="529" y="1239" as="targetPoint" />
          </mxGeometry>
        </mxCell>
        <mxCell id="kZOT7CUKK4h2_xGk0QCZ-24" value="" style="endArrow=none;html=1;rounded=0;exitX=0.5;exitY=1;exitDx=0;exitDy=0;entryX=0.5;entryY=0;entryDx=0;entryDy=0;" edge="1" parent="1" source="kZOT7CUKK4h2_xGk0QCZ-12" target="kZOT7CUKK4h2_xGk0QCZ-16">
          <mxGeometry width="50" height="50" relative="1" as="geometry">
            <mxPoint x="490" y="1210" as="sourcePoint" />
            <mxPoint x="550" y="1230" as="targetPoint" />
          </mxGeometry>
        </mxCell>
        <mxCell id="kZOT7CUKK4h2_xGk0QCZ-25" value="" style="endArrow=none;html=1;rounded=0;exitX=0.5;exitY=1;exitDx=0;exitDy=0;entryX=0;entryY=0.5;entryDx=0;entryDy=0;" edge="1" parent="1" source="kZOT7CUKK4h2_xGk0QCZ-11" target="kZOT7CUKK4h2_xGk0QCZ-15">
          <mxGeometry width="50" height="50" relative="1" as="geometry">
            <mxPoint x="390" y="1210" as="sourcePoint" />
            <mxPoint x="450" y="1230" as="targetPoint" />
          </mxGeometry>
        </mxCell>
        <mxCell id="kZOT7CUKK4h2_xGk0QCZ-26" value="" style="shape=singleArrow;direction=south;whiteSpace=wrap;html=1;fillColor=#b0e3e6;strokeColor=#0e8088;" vertex="1" parent="1">
          <mxGeometry x="405" y="985" width="40" height="70" as="geometry" />
        </mxCell>
        <mxCell id="kZOT7CUKK4h2_xGk0QCZ-27" value="&lt;font style=&quot;font-size: 15px;&quot;&gt;Cluster Partion&lt;/font&gt;" style="text;strokeColor=none;fillColor=none;html=1;fontSize=24;fontStyle=1;verticalAlign=middle;align=center;" vertex="1" parent="1">
          <mxGeometry x="510" y="1015" width="100" height="40" as="geometry" />
        </mxCell>
        <mxCell id="kZOT7CUKK4h2_xGk0QCZ-28" value="" style="shape=singleArrow;direction=south;whiteSpace=wrap;html=1;fillColor=#b0e3e6;strokeColor=#0e8088;" vertex="1" parent="1">
          <mxGeometry x="400" y="1320" width="40" height="70" as="geometry" />
        </mxCell>
        <mxCell id="kZOT7CUKK4h2_xGk0QCZ-29" value="Cluster Group 0" style="text;html=1;align=center;verticalAlign=middle;whiteSpace=wrap;rounded=0;fontSize=15;" vertex="1" parent="1">
          <mxGeometry x="290" y="1100" width="80" height="35" as="geometry" />
        </mxCell>
        <mxCell id="kZOT7CUKK4h2_xGk0QCZ-30" value="Cluster Group 1" style="text;html=1;align=center;verticalAlign=middle;whiteSpace=wrap;rounded=0;fontSize=15;" vertex="1" parent="1">
          <mxGeometry x="480" y="1280" width="80" height="35" as="geometry" />
        </mxCell>
        <mxCell id="kZOT7CUKK4h2_xGk0QCZ-31" value="" style="shape=table;startSize=0;container=1;collapsible=0;childLayout=tableLayout;fontSize=16;fillColor=#fad7ac;strokeColor=#b46504;" vertex="1" parent="1">
          <mxGeometry x="185" y="1440" width="515" height="40" as="geometry" />
        </mxCell>
        <mxCell id="kZOT7CUKK4h2_xGk0QCZ-32" value="" style="shape=tableRow;horizontal=0;startSize=0;swimlaneHead=0;swimlaneBody=0;strokeColor=inherit;top=0;left=0;bottom=0;right=0;collapsible=0;dropTarget=0;fillColor=none;points=[[0,0.5],[1,0.5]];portConstraint=eastwest;fontSize=16;" vertex="1" parent="kZOT7CUKK4h2_xGk0QCZ-31">
          <mxGeometry width="515" height="40" as="geometry" />
        </mxCell>
        <mxCell id="kZOT7CUKK4h2_xGk0QCZ-33" value="Cluster Group" style="shape=partialRectangle;html=1;whiteSpace=wrap;connectable=0;strokeColor=inherit;overflow=hidden;fillColor=none;top=0;left=0;bottom=0;right=0;pointerEvents=1;fontSize=16;" vertex="1" parent="kZOT7CUKK4h2_xGk0QCZ-32">
          <mxGeometry width="129" height="40" as="geometry">
            <mxRectangle width="129" height="40" as="alternateBounds" />
          </mxGeometry>
        </mxCell>
        <mxCell id="kZOT7CUKK4h2_xGk0QCZ-34" value="Cluster Group" style="shape=partialRectangle;html=1;whiteSpace=wrap;connectable=0;strokeColor=inherit;overflow=hidden;fillColor=none;top=0;left=0;bottom=0;right=0;pointerEvents=1;fontSize=16;" vertex="1" parent="kZOT7CUKK4h2_xGk0QCZ-32">
          <mxGeometry x="129" width="130" height="40" as="geometry">
            <mxRectangle width="130" height="40" as="alternateBounds" />
          </mxGeometry>
        </mxCell>
        <mxCell id="kZOT7CUKK4h2_xGk0QCZ-35" value="Cluster Group" style="shape=partialRectangle;html=1;whiteSpace=wrap;connectable=0;strokeColor=inherit;overflow=hidden;fillColor=none;top=0;left=0;bottom=0;right=0;pointerEvents=1;fontSize=16;" vertex="1" parent="kZOT7CUKK4h2_xGk0QCZ-32">
          <mxGeometry x="259" width="127" height="40" as="geometry">
            <mxRectangle width="127" height="40" as="alternateBounds" />
          </mxGeometry>
        </mxCell>
        <mxCell id="kZOT7CUKK4h2_xGk0QCZ-36" value="Cluster Group" style="shape=partialRectangle;html=1;whiteSpace=wrap;connectable=0;strokeColor=inherit;overflow=hidden;fillColor=none;top=0;left=0;bottom=0;right=0;pointerEvents=1;fontSize=16;" vertex="1" parent="kZOT7CUKK4h2_xGk0QCZ-32">
          <mxGeometry x="386" width="129" height="40" as="geometry">
            <mxRectangle width="129" height="40" as="alternateBounds" />
          </mxGeometry>
        </mxCell>
      </root>
    </mxGraphModel>
  </diagram>
</mxfile>
